<svg id="Capa_1" data-name="Capa 1" xmlns="http://www.w3.org/2000/svg" viewBox="0 0 512 512"><defs><style>.cls-1{fill:#46ad9f;}.cls-2{fill:#45b1a1;}</style></defs><path class="cls-1" d="M430,210.19c6.8-40.95,4-79-32.65-106.61-34.86-26.25-92.44-23.2-124.11,6-5.27,4.85-7.94,8.82-2.77,15.47,18.22,23.36,19.24,50.41,16.09,78.24l-17.06-6.81a79.35,79.35,0,0,0-13-55.73c-2.71-4.1-6.07-9.5-10.59-1.11C235.1,159.71,226.06,180,237.58,203l-19.85,4.39c-13.77-29.45-2.78-55.2,13.84-78.79,6.8-9.66,5-13.63-2.67-20.2-31.23-26.9-84.46-30.6-118.53-7.68-35.61,24-49.27,68.1-34.6,112.57C86.25,245,106.5,270.63,128.45,295c24.58,27.34,54.18,49.24,80.67,74.48,3.78,3.6,15.28,6.56,6.3,16.59-8.33,9.32-13.89,3.89-20.74-1.95-44.56-38-90.49-74.77-120.9-126.32-19.42-32.91-31.64-67.71-22.36-106.36C70.91,70.21,166.92,37.57,236.15,89.06c11.75,8.74,17.87,9.85,30.53.48,39.42-29.17,83.2-33.86,127.37-11.61,41,20.64,60.24,56.24,60.72,101.66.16,15.55-2.69,31-11.63,44.5l-.62-.54C444.16,213.67,440.42,208.82,430,210.19Z"/><path class="cls-2" d="M416.7,278.26c-31.92,48.07-75.42,84.48-120.66,119a758.17,758.17,0,0,1-89,58c-6.78,3.81-11.77,9.33-18.37-2.17-6.24-10.87-.84-13,6.63-16.93,60.62-32,115.77-71.48,163.3-121.09,13.6-14.19,26.24-29.29,39.32-44C406,268.84,409.66,278,416.7,278.26Z"/><path class="cls-2" d="M269.53,196.49l17.06,6.81c-4,17.45-16.87,24.48-32.84,25.5-16.15,1-29.3-5.42-36-21.44L237.58,203C250.86,213.78,261.15,209.87,269.53,196.49Z"/><path class="cls-1" d="M416.7,278.26c-7-.29-10.72-9.42-18.74-7.14q15-26.58,30.1-53.13c4.42,11.75-7.82,19.88-7.49,31.13,9,.53,8.74-7.92,12.92-11.56s0-13.15,9-14l.62.54C442.13,246,429.2,262,416.7,278.26Z"/><path class="cls-2" d="M442.52,223.55c-9,.86-4.74,10.27-9,14s-3.89,12.09-12.92,11.56c-.33-11.25,11.91-19.38,7.49-31.13.66-2.6,1.31-5.2,2-7.8C440.42,208.82,444.16,213.67,442.52,223.55Z"/></svg>