<svg id="Capa_1" data-name="Capa 1" xmlns="http://www.w3.org/2000/svg" viewBox="0 0 1440 250"><defs><style>.cls-1{fill:#45b1a1;}.cls-2{fill:#43ae9e;}.cls-3{fill:#46ad9f;}.cls-4{fill:#4bb09f;}</style></defs><path class="cls-1" d="M363.74,73.85a77.14,77.14,0,0,1,33.91,7.8c3.64,1.78,8.71,2.8,4.56,9.2-2.82,4.34-3.67,8.67-10.82,4.93a63.29,63.29,0,0,0-35-6.72c-10.53.9-17.39,6.57-18.71,15.07-1.37,8.81,3,15.4,13.91,19.17,11.67,4,23.8,6.75,35.36,11,12.05,4.48,20.16,12.91,21.28,26.57s-5.57,25-18.77,31.36c-20.78,10-53.4,5.17-71.14-9.8-6.73-5.67,0-8.59,1.37-12.55,2.11-6,5-1.84,7.4-.16a67.65,67.65,0,0,0,36.48,12.47,35.2,35.2,0,0,0,16.65-2.93c5.72-2.69,10-7,10.45-13.66.51-7-2.8-12.16-8.76-15.74-4.94-3-10.42-4.43-15.9-6-8.68-2.43-17.43-4.66-26-7.49-12.36-4.09-19.51-12.83-20.16-25.92-.67-13.45,4.75-24.1,16.77-30.79C345,75.07,354.23,73.64,363.74,73.85Z"/><path class="cls-2" d="M686.36,133.81c.06-24,15.12-46.11,37.8-55.56s50.2-4.78,66.33,11.48c2.14,2.17,8.62,4.48,2.89,9.18-3.9,3.21-6.88,8.42-13.83,2a45.25,45.25,0,0,0-64,1.93c-17,18.25-16.29,47.22,1.72,65.3,17.7,17.77,44.73,18.84,63,1.13,6.66-6.44,9.72-2.07,13.7,1.31,5.68,4.83-.93,7-3,9.18a57.89,57.89,0,0,1-63.57,14.13C702.82,184,686.29,159.84,686.36,133.81Z"/><path class="cls-1" d="M1130.21,157.39c-.23-31.88,19.2-51.87,45.08-52,24.73-.14,43.41,19.28,44,45.23.13,5.67-1.38,7.58-7.2,7.48-19.74-.32-39.49,0-59.24-.24-6.54-.09-7.43,1.89-4.86,7.58,8.25,18.28,31.28,23.7,49.71,11.61,2.46-1.61,3.93-5.57,8.42-3.2,7.93,4.19,8.51,7.24,1.36,12.64-16,12.12-33.53,14.9-51.92,6.39C1138.32,184.88,1130.76,170.35,1130.21,157.39Zm43.94-11.26c7.66,0,15.32-.16,23,.06,5.06.16,6.27-1.88,5.41-6.64-2.3-12.69-13-20.78-27.78-20.65-14.11.12-26.69,10-28.42,22.07-.62,4.27,1.16,5.23,4.85,5.18C1158.84,146,1166.5,146.11,1174.15,146.13Z"/><path class="cls-2" d="M854.57,105.35c26.52-.12,46.87,20.25,46.94,47,.07,24.7-21.06,45.24-46.57,45.27-25.92,0-46-19.72-46.09-45.36C808.74,125.65,828.42,105.47,854.57,105.35Zm-30.1,44.91c-.5,18,12.15,32.15,29.25,32.74a30.53,30.53,0,0,0,31.62-30.37c.34-19.06-11.82-32.55-29.84-33.11C838,119,825,131.89,824.47,150.26Z"/><path class="cls-2" d="M469.05,197.7c-25.8.16-46.4-20.43-46.47-46.45-.08-25.86,20.31-45.84,46.88-45.93a45.64,45.64,0,0,1,45.92,45.84C515.48,177.14,495.17,197.55,469.05,197.7Zm-30.49-46.06c.13,17.48,13.83,31.89,30.44,32s30.39-14.51,30.26-32.1c-.13-18.72-13.05-32-31.09-32C450.91,119.53,438.42,133.07,438.56,151.64Z"/><path class="cls-3" d="M598.73,182.81c-9.71,11.32-22.06,16.68-37.1,14-15.6-2.76-24.9-13.29-25.52-30.08-.66-18,0-36.1-.33-54.14-.14-7,4.25-6.06,8.58-6.28s7.77.1,7.68,6.09c-.24,15-.14,30.08,0,45.12.18,16.83,6.77,24.64,20.73,25,15.24.35,26.65-9.55,27.26-24.68.58-14.35.55-28.76,0-43.11-.25-7,2.62-8.14,8.77-8.32,6.86-.2,7.49,3.07,7.46,8.51-.15,23.73.06,47.47-.05,71.2,0,4.42,2.31,10.1-6.48,10.22-7.21.09-9.56-2.26-9-9C600.92,185.87,601,184,598.73,182.81Z"/><path class="cls-3" d="M938,122.08c10.21-12,21.09-17.19,34.76-16.43,16.06.89,26.09,9,28.57,25.53,3,19.92.76,40.06,1,60.11.08,7.64-6.21,3.85-9.77,4.55-4.62.91-6.48-1.17-6.4-6.1.24-14.71.15-29.43,0-44.14-.2-17.38-6-24.41-20.39-25.25-14.2-.83-26,8.93-27,23.88-.92,14.66-.61,29.42-.19,44.12.19,6.44-2.16,7.79-8.09,7.81s-8.14-1.19-8-7.71c.33-24.4,0-48.82-.11-73.23,0-4.69-1-9.19,6.63-9.18,6.77,0,9.06,2.33,8.43,8.67C937.26,116.28,937.65,117.89,938,122.08Z"/><path class="cls-4" d="M1046,121.63c9.84-11.36,20.18-16.4,33.11-16,17.47.48,29.1,9.46,30.46,27,1.5,19.32.71,38.8,1.12,58.21.13,6.76-4.6,5.19-8.31,5.24s-8.24,1.11-8.12-5.52c.27-14.73.18-29.47.06-44.2-.13-17.5-6.7-25.48-21-25.93-15.15-.47-26.87,10.2-27.33,25.92-.41,14,0,28.12.46,42.17.17,5.35-.9,8.16-7,7.68-5.06-.4-9.7.82-9.54-7.4.49-24.77.19-49.55,0-74.33,0-5,.39-8.25,6.78-8.23,5.54,0,9.29.56,8.62,7.34C1045,115.4,1045.55,117.35,1046,121.63Z"/><path class="cls-1" d="M1280,105.4a41.07,41.07,0,0,1,30.37,13.07c1.86,2,7.07,4.88,3,7.73-3.42,2.41-7.35,7.91-13.74,2.2-13.85-12.36-31-11.52-42.94,1-11.15,11.68-11.6,30.5-1,43,10.09,11.9,27,13.75,40.76,4.41,1.93-1.31,3.56-3.19,5.64-4.13,4.83-2.2,8.8,1.18,11.54,3.86,3.33,3.27-1.1,5.79-3.24,8-14.21,14.59-36.93,17.26-55.5,6.67-17.37-9.91-26.57-31.33-21.78-50.76C1238.2,119.78,1255.6,106.21,1280,105.4Z"/><path class="cls-1" d="M1339.62,149.72c0-5,.09-10,0-15.06-.15-7.37,3.07-16.93-10.72-15.08-4.45.6-3.51-3.9-3.6-6.72-.09-2.62-.47-6.21,3.56-5.66,13.62,1.86,10.52-7.71,11.08-15.26.29-3.93-2.89-9.88,5.31-10.41,6.83-.44,11.29.65,9.91,8.9-.22,1.3.18,2.71-.06,4-1.91,10.26,2.33,13.68,12.48,12.68,3.68-.36,10-3.56,11.53,3.61,1.22,5.66-.11,9.11-7.54,9.16-16.44.09-16.44.55-16.5,17,0,10-.14,20.08-.07,30.12.09,13.12,6,17.34,18.54,14.09,2.57-.66,6.51-6,8.47,1.13,1.42,5.17,2.22,9.2-4.43,12-21.41,9-37.65-1.18-37.86-24.41-.06-6.69,0-13.38,0-20.08Z"/><path class="cls-4" d="M646.17,131.86c0-18.08.26-36.17-.14-54.25-.14-6.58,2.63-7.74,8.35-7.73,5.46,0,7.71,1.44,7.68,7.34-.16,37.17-.17,74.34.19,111.5.06,6.87-3.11,7.21-8.49,7.48-6.39.32-7.93-2.1-7.83-8.08.32-18.75.12-37.5.12-56.26Z"/><path class="cls-3" d="M254.6,95.69c4-24.32,2.35-46.93-19.38-63.3-20.7-15.58-54.89-13.77-73.69,3.57-3.13,2.88-4.71,5.24-1.64,9.18C170.71,59,171.31,75.07,169.44,91.6l-10.13-4a47.14,47.14,0,0,0-7.72-33.09c-1.62-2.43-3.61-5.64-6.3-.65-6.42,11.91-11.79,23.94-4.95,37.59L128.56,94c-8.17-17.49-1.65-32.78,8.21-46.78,4-5.74,2.95-8.1-1.58-12-18.54-16-50.14-18.16-70.37-4.56C43.67,44.9,35.56,71.1,44.27,97.51c6.23,18.86,18.25,34.06,31.28,48.55,14.59,16.24,32.17,29.23,47.9,44.22,2.24,2.14,9.07,3.89,3.74,9.85-4.94,5.53-8.25,2.31-12.31-1.16-26.46-22.58-53.73-44.39-71.79-75C31.56,104.44,24.31,83.77,29.82,60.83,41.39,12.58,98.39-6.8,139.5,23.77c7,5.19,10.61,5.85,18.12.29C181,6.74,207,4,233.24,17.16,257.58,29.42,269,50.55,269.29,77.52c.1,9.23-1.59,18.4-6.9,26.42l-.37-.32C263,97.75,260.77,94.87,254.6,95.69Z"/><path class="cls-1" d="M246.69,136.1c-18.95,28.54-44.77,50.16-71.63,70.63a450,450,0,0,1-52.83,34.47c-4,2.26-7,5.54-10.9-1.29-3.71-6.45-.5-7.71,3.94-10,36-19,68.73-42.44,97-71.89,8.07-8.43,15.58-17.39,23.34-26.11C240.33,130.51,242.51,135.93,246.69,136.1Z"/><path class="cls-1" d="M159.31,87.55l10.13,4c-2.36,10.35-10,14.53-19.49,15.13s-17.4-3.21-21.39-12.72l11.78-2.61C148.23,97.82,154.34,95.5,159.31,87.55Z"/><path class="cls-3" d="M246.69,136.1c-4.18-.17-6.36-5.59-11.13-4.24l17.88-31.54c2.62,7-4.65,11.8-4.45,18.48,5.36.31,5.19-4.7,7.67-6.87s0-7.8,5.36-8.31l.37.32C261.79,116.92,254.11,126.45,246.69,136.1Z"/><path class="cls-1" d="M262,103.62c-5.35.51-2.82,6.1-5.36,8.31s-2.31,7.18-7.67,6.87c-.2-6.68,7.07-11.51,4.45-18.48.38-1.55.77-3.09,1.16-4.63C260.77,94.87,263,97.75,262,103.62Z"/></svg>